<svg viewBox="0 0 512 512" xmlns="http://www.w3.org/2000/svg"><text x="729.64" y="231.36"><tspan x="729.64" y="231.36"/></text><text transform="scale(4.0128 .2492)" x="378.91" y="579.26"/><text x="1310.91" y="151.36"><tspan x="1310.91" y="151.36"/></text><text transform="scale(4.0128 .2492)" x="523.76" y="258.22"/><text x="239.33" y="-29.9"><tspan x="239.33" y="-29.9"/></text><text transform="scale(4.0128 .2492)" x="256.72" y="-469.13"/><text x="1337.38" y="-246.37"><tspan x="1337.38" y="-246.37"/></text><text transform="scale(4.0128 .2492)" x="530.36" y="-1337.8"/><text x="1918.65" y="-326.37"><tspan x="1918.65" y="-326.37"/></text><text transform="scale(4.0128 .2492)" x="675.21" y="-1658.83"/><text x="1529.53" y="-798.77"><tspan x="1529.53" y="-798.77"/></text><text transform="scale(4.0128 .2492)" x="578.24" y="-3554.48"/><text x="2110.79" y="-878.78"><tspan x="2110.79" y="-878.78"/></text><text transform="scale(4.0128 .2492)" x="723.09" y="-3875.52"/><text x="277.99" y="535.94"><tspan x="277.99" y="535.94"/></text><text x="729.64" y="231.36"><tspan x="729.64" y="231.36"/></text><text transform="scale(4.0128 .2492)" x="378.91" y="579.26"/><text x="1310.91" y="151.36"><tspan x="1310.91" y="151.36"/></text><text transform="scale(4.0128 .2492)" x="523.76" y="258.22"/><text x="239.33" y="-29.9"><tspan x="239.33" y="-29.9"/></text><text transform="scale(4.0128 .2492)" x="256.72" y="-469.13"/><text x="1337.38" y="-246.37"><tspan x="1337.38" y="-246.37"/></text><text transform="scale(4.0128 .2492)" x="530.36" y="-1337.79"/><text x="1918.65" y="-326.37"><tspan x="1918.65" y="-326.37"/></text><text transform="scale(4.0128 .2492)" x="675.21" y="-1658.82"/><text x="1529.53" y="-798.77"><tspan x="1529.53" y="-798.77"/></text><text transform="scale(4.0128 .2492)" x="578.24" y="-3554.46"/><text x="2110.79" y="-878.78"><tspan x="2110.79" y="-878.78"/></text><text transform="scale(4.0128 .2492)" x="723.09" y="-3875.5"/><text x="277.99" y="535.94"><tspan x="277.99" y="535.94"/></text><text x="729.64" y="231.36"><tspan x="729.64" y="231.36"/></text><text transform="scale(4.0128 .2492)" x="378.91" y="579.26"/><text x="1310.91" y="151.36"><tspan x="1310.91" y="151.36"/></text><text transform="scale(4.0128 .2492)" x="523.76" y="258.22"/><text x="239.33" y="-29.9"><tspan x="239.33" y="-29.9"/></text><text transform="scale(4.0128 .2492)" x="256.72" y="-469.13"/><text x="1337.38" y="-246.37"><tspan x="1337.38" y="-246.37"/></text><text transform="scale(4.0128 .2492)" x="530.36" y="-1337.8"/><text x="1918.65" y="-326.37"><tspan x="1918.65" y="-326.37"/></text><text transform="scale(4.0128 .2492)" x="675.21" y="-1658.83"/><text x="1529.53" y="-798.77"><tspan x="1529.53" y="-798.77"/></text><text transform="scale(4.0128 .2492)" x="578.24" y="-3554.48"/><text x="2110.79" y="-878.78"><tspan x="2110.79" y="-878.78"/></text><text transform="scale(4.0128 .2492)" x="723.09" y="-3875.52"/><text x="277.99" y="535.94"><tspan x="277.99" y="535.94"/></text><text x="729.64" y="231.36"><tspan x="729.64" y="231.36"/></text><text transform="scale(4.0128 .2492)" x="378.91" y="579.26"/><text x="1310.91" y="151.36"><tspan x="1310.91" y="151.36"/></text><text transform="scale(4.0128 .2492)" x="523.76" y="258.22"/><text x="239.33" y="-29.9"><tspan x="239.33" y="-29.9"/></text><text transform="scale(4.0128 .2492)" x="256.72" y="-469.13"/><text x="1337.38" y="-246.37"><tspan x="1337.38" y="-246.37"/></text><text transform="scale(4.0128 .2492)" x="530.36" y="-1337.8"/><text x="1918.65" y="-326.37"><tspan x="1918.65" y="-326.37"/></text><text transform="scale(4.0128 .2492)" x="675.21" y="-1658.83"/><text x="1529.53" y="-798.77"><tspan x="1529.53" y="-798.77"/></text><text transform="scale(4.0128 .2492)" x="578.24" y="-3554.48"/><text x="2110.79" y="-878.78"><tspan x="2110.79" y="-878.78"/></text><text transform="scale(4.0128 .2492)" x="723.09" y="-3875.52"/><text x="277.99" y="535.94"><tspan x="277.99" y="535.94"/></text><text x="729.64" y="231.36"><tspan x="729.64" y="231.36"/></text><text transform="scale(4.0128 .2492)" x="378.91" y="579.26"/><text x="1310.91" y="151.36"><tspan x="1310.91" y="151.36"/></text><text transform="scale(4.0128 .2492)" x="523.76" y="258.22"/><text x="239.33" y="-29.9"><tspan x="239.33" y="-29.9"/></text><text transform="scale(4.0128 .2492)" x="256.72" y="-469.13"/><text x="1337.38" y="-246.37"><tspan x="1337.38" y="-246.37"/></text><text transform="scale(4.0128 .2492)" x="530.36" y="-1337.8"/><text x="1918.65" y="-326.37"><tspan x="1918.65" y="-326.37"/></text><text transform="scale(4.0128 .2492)" x="675.21" y="-1658.83"/><text x="1529.53" y="-798.77"><tspan x="1529.53" y="-798.77"/></text><text transform="scale(4.0128 .2492)" x="578.24" y="-3554.48"/><text x="2110.79" y="-878.78"><tspan x="2110.79" y="-878.78"/></text><text transform="scale(4.0128 .2492)" x="723.09" y="-3875.52"/><text x="277.99" y="535.94"><tspan x="277.99" y="535.94"/></text><text x="729.64" y="231.36"><tspan x="729.64" y="231.36"/></text><text transform="scale(4.0128 .2492)" x="378.91" y="579.26"/><text x="1310.91" y="151.36"><tspan x="1310.91" y="151.36"/></text><text transform="scale(4.0128 .2492)" x="523.76" y="258.22"/><text x="239.33" y="-29.9"><tspan x="239.33" y="-29.9"/></text><text transform="scale(4.0128 .2492)" x="256.72" y="-469.13"/><text x="1337.38" y="-246.37"><tspan x="1337.38" y="-246.37"/></text><text transform="scale(4.0128 .2492)" x="530.36" y="-1337.8"/><text x="1918.65" y="-326.37"><tspan x="1918.65" y="-326.37"/></text><text transform="scale(4.0128 .2492)" x="675.21" y="-1658.83"/><text x="1529.53" y="-798.77"><tspan x="1529.53" y="-798.77"/></text><text transform="scale(4.0128 .2492)" x="578.24" y="-3554.48"/><text x="2110.79" y="-878.78"><tspan x="2110.79" y="-878.78"/></text><text transform="scale(4.0128 .2492)" x="723.09" y="-3875.52"/><text x="277.99" y="535.94"><tspan x="277.99" y="535.94"/></text><text x="1579.63" y="282.62"><tspan x="1579.63" y="282.62"/></text><text transform="scale(4.0128 .2492)" x="590.73" y="784.96"/><text x="2160.9" y="202.62"><tspan x="2160.9" y="202.62"/></text><text transform="scale(4.0128 .2492)" x="735.58" y="463.92"/><text x="1089.32" y="21.362"><tspan x="1089.32" y="21.362"/></text><text transform="scale(4.0128 .2492)" x="468.54" y="-263.42"/><text x="2187.37" y="-195.11"><tspan x="2187.37" y="-195.11"/></text><text transform="scale(4.0128 .2492)" x="742.18" y="-1132.09"/><text x="2768.64" y="-275.12"><tspan x="2768.64" y="-275.12"/></text><text transform="scale(4.0128 .2492)" x="887.03" y="-1453.12"/><text x="2379.52" y="-747.52"><tspan x="2379.52" y="-747.52"/></text><text transform="scale(4.0128 .2492)" x="790.06" y="-3348.76"/><text x="2960.79" y="-827.52"><tspan x="2960.79" y="-827.52"/></text><text transform="scale(4.0128 .2492)" x="934.91" y="-3669.79"/><text x="1127.98" y="587.2"><tspan x="1127.98" y="587.2"/></text><text x="4683.77" y="-460.26"><tspan x="4683.77" y="-460.26"/></text><text transform="scale(4.0128 .2492)" x="1364.26" y="-2196.05"/><text x="5265.04" y="-540.26"><tspan x="5265.04" y="-540.26"/></text><text transform="scale(4.0128 .2492)" x="1509.11" y="-2517.07"/><text x="4193.46" y="-721.51"><tspan x="4193.46" y="-721.51"/></text><text transform="scale(4.0128 .2492)" x="1242.07" y="-3244.43"/><text x="5291.51" y="-937.99"><tspan x="5291.51" y="-937.99"/></text><text transform="scale(4.0128 .2492)" x="1515.71" y="-4113.09"/><text x="5872.78" y="-1017.99"><tspan x="5872.78" y="-1017.99"/></text><text transform="scale(4.0128 .2492)" x="1660.56" y="-4434.11"/><text x="5483.66" y="-1490.39"><tspan x="5483.66" y="-1490.39"/></text><text transform="scale(4.0128 .2492)" x="1563.59" y="-6329.77"/><text x="6064.92" y="-1570.39"><tspan x="6064.92" y="-1570.39"/></text><text transform="scale(4.0128 .2492)" x="1708.44" y="-6650.79"/><text x="4232.12" y="-155.68"><tspan x="4232.12" y="-155.68"/></text><text x="940.11" y="189.54"><tspan x="940.11" y="189.54"/></text><text transform="scale(4.0128 .2492)" x="431.36" y="411.44"/><text x="1521.38" y="109.54"><tspan x="1521.38" y="109.54"/></text><text transform="scale(4.0128 .2492)" x="576.21" y="90.43"/><text x="449.8" y="-71.72"><tspan x="449.8" y="-71.72"/></text><text transform="scale(4.0128 .2492)" x="309.17" y="-636.93"/><text x="1547.85" y="-288.19"><tspan x="1547.85" y="-288.19"/></text><text transform="scale(4.0128 .2492)" x="582.81" y="-1505.6"/><text x="2129.12" y="-368.2"><tspan x="2129.12" y="-368.2"/></text><text transform="scale(4.0128 .2492)" x="727.66" y="-1826.62"/><text x="1740" y="-840.6"><tspan x="1740" y="-840.6"/></text><text transform="scale(4.0128 .2492)" x="630.69" y="-3722.27"/><text x="2321.26" y="-920.6"><tspan x="2321.26" y="-920.6"/></text><text transform="scale(4.0128 .2492)" x="775.54" y="-4043.29"/><text x="488.46" y="494.12"><tspan x="488.46" y="494.12"/></text><text x="-1735.37" y="475.16"><tspan x="-1735.37" y="475.16"/></text><text transform="scale(4.0128 .2492)" x="-114.73" y="1343.85"/><text x="-1029.03" y="319.53"><tspan x="-1029.03" y="319.53"/></text><text transform="scale(4.0128 .2492)" x="61.29" y="719.32"/><text x="-995.66" y="311.41"><tspan x="-995.66" y="311.41"/></text><text transform="scale(4.0128 .2492)" x="69.61" y="686.72"/><text x="154.76" y="157"><tspan x="154.76" y="157"/></text><text transform="scale(4.0128 .2492)" x="235.65" y="280.86"/><text x="736.02" y="77"><tspan x="736.02" y="77"/></text><text transform="scale(4.0128 .2492)" x="380.5" y="-40.16"/><text x="-335.56" y="-104.26"><tspan x="-335.56" y="-104.26"/></text><text transform="scale(4.0128 .2492)" x="113.46" y="-767.5"/><text x="762.49" y="-320.73"><tspan x="762.49" y="-320.73"/></text><text transform="scale(4.0128 .2492)" x="387.1" y="-1636.18"/><text x="1343.76" y="-400.73"><tspan x="1343.76" y="-400.73"/></text><text transform="scale(4.0128 .2492)" x="531.94" y="-1957.19"/><text x="954.64" y="-873.13"><tspan x="954.64" y="-873.13"/></text><text transform="scale(4.0128 .2492)" x="434.98" y="-3852.82"/><text x="1535.9" y="-953.14"><tspan x="1535.9" y="-953.14"/></text><text transform="scale(4.0128 .2492)" x="579.82" y="-4173.86"/><text x="-296.9" y="461.58"><tspan x="-296.9" y="461.58"/></text><text x="104.31" y="-582.01"><tspan x="104.31" y="-582.01"/></text><text transform="scale(4.0128 .2492)" x="223.08" y="-2684.62"/><text x="685.58" y="-662.01"><tspan x="685.58" y="-662.01"/></text><text transform="scale(4.0128 .2492)" x="367.93" y="-3005.65"/><text x="-386" y="-843.27"><tspan x="-386" y="-843.27"/></text><text transform="scale(4.0128 .2492)" x="100.89" y="-3733"/><text x="712.05" y="-1059.74"><tspan x="712.05" y="-1059.74"/></text><text transform="scale(4.0128 .2492)" x="374.53" y="-4601.65"/><text x="1293.31" y="-1139.75"><tspan x="1293.31" y="-1139.75"/></text><text transform="scale(4.0128 .2492)" x="519.37" y="-4922.69"/><text x="904.19" y="-1612.15"><tspan x="904.19" y="-1612.15"/></text><text transform="scale(4.0128 .2492)" x="422.41" y="-6818.32"/><text x="1485.46" y="-1692.15"><tspan x="1485.46" y="-1692.15"/></text><text transform="scale(4.0128 .2492)" x="567.25" y="-7139.35"/><text x="-347.35" y="-277.43"><tspan x="-347.35" y="-277.43"/></text><text x="3208.45" y="-1324.89"><tspan x="3208.45" y="-1324.89"/></text><text transform="scale(4.0128 .2492)" x="996.61" y="-5665.6"/><text x="3789.71" y="-1404.89"><tspan x="3789.71" y="-1404.89"/></text><text transform="scale(4.0128 .2492)" x="1141.46" y="-5986.64"/><text x="2718.13" y="-1586.14"><tspan x="2718.13" y="-1586.14"/></text><text transform="scale(4.0128 .2492)" x="874.43" y="-6713.98"/><text x="3816.18" y="-1802.62"><tspan x="3816.18" y="-1802.62"/></text><text transform="scale(4.0128 .2492)" x="1148.06" y="-7582.63"/><text x="4397.45" y="-1882.62"><tspan x="4397.45" y="-1882.62"/></text><text transform="scale(4.0128 .2492)" x="1292.91" y="-7903.67"/><text x="4008.33" y="-2355.02"><tspan x="4008.33" y="-2355.02"/></text><text transform="scale(4.0128 .2492)" x="1195.94" y="-9799.3"/><text x="4589.6" y="-2435.02"><tspan x="4589.6" y="-2435.02"/></text><text transform="scale(4.0128 .2492)" x="1340.79" y="-10120.33"/><text x="2756.79" y="-1020.31"><tspan x="2756.79" y="-1020.31"/></text><text x="-1785.82" y="-266.23"><tspan x="-1785.82" y="-266.23"/></text><text transform="scale(4.0128 .2492)" x="-127.3" y="-1631.21"/><text x="-1785.82" y="-266.23"><tspan x="-1785.82" y="-266.23"/></text><text transform="scale(4.0128 .2492)" x="-127.3" y="-1631.21"/><text x="-2119.37" y="366.68"><tspan x="-2119.37" y="366.68"/></text><text transform="scale(4.0128 .2492)" x="-210.42" y="908.55"/><text x="-1413.03" y="211.05"><tspan x="-1413.03" y="211.05"/></text><text transform="scale(4.0128 .2492)" x="-34.4" y="284.03"/><text x="1579.63" y="282.64"><tspan x="1579.63" y="282.64"/></text><text transform="scale(4.0128 .2492)" x="590.73" y="785.04"/><text x="2160.9" y="202.64"><tspan x="2160.9" y="202.64"/></text><text transform="scale(4.0128 .2492)" x="735.58" y="464"/><text x="1089.32" y="21.382"><tspan x="1089.32" y="21.382"/></text><text transform="scale(4.0128 .2492)" x="468.54" y="-263.34"/><text x="2187.37" y="-195.09"><tspan x="2187.37" y="-195.09"/></text><text transform="scale(4.0128 .2492)" x="742.18" y="-1132.02"/><text x="2768.64" y="-275.1"><tspan x="2768.64" y="-275.1"/></text><text transform="scale(4.0128 .2492)" x="887.03" y="-1453.05"/><text x="2379.52" y="-747.5"><tspan x="2379.52" y="-747.5"/></text><text transform="scale(4.0128 .2492)" x="790.06" y="-3348.7"/><text x="2960.79" y="-827.5"><tspan x="2960.79" y="-827.5"/></text><text transform="scale(4.0128 .2492)" x="934.91" y="-3669.73"/><text x="1127.98" y="587.22"><tspan x="1127.98" y="587.22"/></text><text x="4683.77" y="-460.24"><tspan x="4683.77" y="-460.24"/></text><text transform="scale(4.0128 .2492)" x="1364.27" y="-2195.98"/><text x="5265.04" y="-540.24"><tspan x="5265.04" y="-540.24"/></text><text transform="scale(4.0128 .2492)" x="1509.12" y="-2517.01"/><text x="4193.46" y="-721.49"><tspan x="4193.46" y="-721.49"/></text><text transform="scale(4.0128 .2492)" x="1242.08" y="-3244.37"/><text x="5291.51" y="-937.97"><tspan x="5291.51" y="-937.97"/></text><text transform="scale(4.0128 .2492)" x="1515.72" y="-4113.03"/><text x="5872.78" y="-1017.97"><tspan x="5872.78" y="-1017.97"/></text><text transform="scale(4.0128 .2492)" x="1660.57" y="-4434.06"/><text x="5483.66" y="-1490.37"><tspan x="5483.66" y="-1490.37"/></text><text transform="scale(4.0128 .2492)" x="1563.6" y="-6329.72"/><text x="6064.92" y="-1570.37"><tspan x="6064.92" y="-1570.37"/></text><text transform="scale(4.0128 .2492)" x="1708.45" y="-6650.75"/><text x="4232.12" y="-155.66"><tspan x="4232.12" y="-155.66"/></text><text x="729.64" y="231.36"><tspan x="729.64" y="231.36"/></text><text transform="scale(4.0128 .2492)" x="378.91" y="579.26"/><text x="1310.91" y="151.36"><tspan x="1310.91" y="151.36"/></text><text transform="scale(4.0128 .2492)" x="523.76" y="258.22"/><text x="239.33" y="-29.9"><tspan x="239.33" y="-29.9"/></text><text transform="scale(4.0128 .2492)" x="256.72" y="-469.13"/><text x="1337.38" y="-246.37"><tspan x="1337.38" y="-246.37"/></text><text transform="scale(4.0128 .2492)" x="530.36" y="-1337.8"/><text x="1918.65" y="-326.37"><tspan x="1918.65" y="-326.37"/></text><text transform="scale(4.0128 .2492)" x="675.21" y="-1658.83"/><text x="1529.53" y="-798.77"><tspan x="1529.53" y="-798.77"/></text><text transform="scale(4.0128 .2492)" x="578.24" y="-3554.48"/><text x="2110.79" y="-878.78"><tspan x="2110.79" y="-878.78"/></text><text transform="scale(4.0128 .2492)" x="723.09" y="-3875.52"/><text x="277.99" y="535.94"><tspan x="277.99" y="535.94"/></text><text x="1781.5" y="272.72"><tspan x="1781.5" y="272.72"/></text><text transform="scale(4.0128 .2492)" x="641.03" y="745.22"/><text x="2362.77" y="192.72"><tspan x="2362.77" y="192.72"/></text><text transform="scale(4.0128 .2492)" x="785.88" y="424.18"/><text x="1291.19" y="11.457"><tspan x="1291.19" y="11.457"/></text><text transform="scale(4.0128 .2492)" x="518.84" y="-303.17"/><text x="2389.24" y="-205.01"><tspan x="2389.24" y="-205.01"/></text><text transform="scale(4.0128 .2492)" x="792.48" y="-1171.84"/><text x="2970.51" y="-285.01"><tspan x="2970.51" y="-285.01"/></text><text transform="scale(4.0128 .2492)" x="937.33" y="-1492.87"/><text x="2581.39" y="-757.41"><tspan x="2581.39" y="-757.41"/></text><text transform="scale(4.0128 .2492)" x="840.36" y="-3388.52"/><text x="3162.65" y="-837.42"><tspan x="3162.65" y="-837.42"/></text><text transform="scale(4.0128 .2492)" x="985.21" y="-3709.56"/><text x="1329.85" y="577.3"><tspan x="1329.85" y="577.3"/></text><text x="729.64" y="231.36"><tspan x="729.64" y="231.36"/></text><text transform="scale(4.0128 .2492)" x="378.91" y="579.26"/><text x="1310.91" y="151.36"><tspan x="1310.91" y="151.36"/></text><text transform="scale(4.0128 .2492)" x="523.76" y="258.22"/><text x="239.33" y="-29.9"><tspan x="239.33" y="-29.9"/></text><text transform="scale(4.0128 .2492)" x="256.72" y="-469.13"/><text x="1337.38" y="-246.37"><tspan x="1337.38" y="-246.37"/></text><text transform="scale(4.0128 .2492)" x="530.36" y="-1337.8"/><text x="1918.65" y="-326.37"><tspan x="1918.65" y="-326.37"/></text><text transform="scale(4.0128 .2492)" x="675.21" y="-1658.83"/><text x="1529.53" y="-798.77"><tspan x="1529.53" y="-798.77"/></text><text transform="scale(4.0128 .2492)" x="578.24" y="-3554.48"/><text x="2110.79" y="-878.78"><tspan x="2110.79" y="-878.78"/></text><text transform="scale(4.0128 .2492)" x="723.09" y="-3875.52"/><text x="277.99" y="535.94"><tspan x="277.99" y="535.94"/></text><text x="729.64" y="231.36"><tspan x="729.64" y="231.36"/></text><text transform="scale(4.0128 .2492)" x="378.91" y="579.26"/><text x="1310.91" y="151.36"><tspan x="1310.91" y="151.36"/></text><text transform="scale(4.0128 .2492)" x="523.76" y="258.22"/><text x="239.33" y="-29.9"><tspan x="239.33" y="-29.9"/></text><text transform="scale(4.0128 .2492)" x="256.72" y="-469.13"/><text x="1337.38" y="-246.37"><tspan x="1337.38" y="-246.37"/></text><text transform="scale(4.0128 .2492)" x="530.36" y="-1337.8"/><text x="1918.65" y="-326.37"><tspan x="1918.65" y="-326.37"/></text><text transform="scale(4.0128 .2492)" x="675.21" y="-1658.83"/><text x="1529.53" y="-798.77"><tspan x="1529.53" y="-798.77"/></text><text transform="scale(4.0128 .2492)" x="578.24" y="-3554.48"/><text x="2110.79" y="-878.78"><tspan x="2110.79" y="-878.78"/></text><text transform="scale(4.0128 .2492)" x="723.09" y="-3875.52"/><text x="277.99" y="535.94"><tspan x="277.99" y="535.94"/></text><text x="729.64" y="231.36"><tspan x="729.64" y="231.36"/></text><text transform="scale(4.0128 .2492)" x="378.91" y="579.26"/><text x="1310.91" y="151.36"><tspan x="1310.91" y="151.36"/></text><text transform="scale(4.0128 .2492)" x="523.76" y="258.22"/><text x="239.33" y="-29.9"><tspan x="239.33" y="-29.9"/></text><text transform="scale(4.0128 .2492)" x="256.72" y="-469.13"/><text x="1337.38" y="-246.37"><tspan x="1337.38" y="-246.37"/></text><text transform="scale(4.0128 .2492)" x="530.36" y="-1337.8"/><text x="1918.65" y="-326.37"><tspan x="1918.65" y="-326.37"/></text><text transform="scale(4.0128 .2492)" x="675.21" y="-1658.83"/><text x="1529.53" y="-798.77"><tspan x="1529.53" y="-798.77"/></text><text transform="scale(4.0128 .2492)" x="578.24" y="-3554.48"/><text x="2110.79" y="-878.78"><tspan x="2110.79" y="-878.78"/></text><text transform="scale(4.0128 .2492)" x="723.09" y="-3875.52"/><text x="277.99" y="535.94"><tspan x="277.99" y="535.94"/></text><text x="729.64" y="231.36"><tspan x="729.64" y="231.36"/></text><text transform="scale(4.0128 .2492)" x="378.91" y="579.25"/><text x="1310.91" y="151.36"><tspan x="1310.91" y="151.36"/></text><text transform="scale(4.0128 .2492)" x="523.76" y="258.22"/><text x="239.33" y="-29.901"><tspan x="239.33" y="-29.901"/></text><text transform="scale(4.0128 .2492)" x="256.72" y="-469.14"/><text x="1337.38" y="-246.37"><tspan x="1337.38" y="-246.37"/></text><text transform="scale(4.0128 .2492)" x="530.36" y="-1337.8"/><text x="1918.65" y="-326.38"><tspan x="1918.65" y="-326.38"/></text><text transform="scale(4.0128 .2492)" x="675.21" y="-1658.84"/><text x="1529.53" y="-798.78"><tspan x="1529.53" y="-798.78"/></text><text transform="scale(4.0128 .2492)" x="578.24" y="-3554.49"/><text x="2110.79" y="-878.78"><tspan x="2110.79" y="-878.78"/></text><text transform="scale(4.0128 .2492)" x="723.09" y="-3875.52"/><text x="277.99" y="535.94"><tspan x="277.99" y="535.94"/></text><text x="729.64" y="231.36"><tspan x="729.64" y="231.36"/></text><text transform="scale(4.0128 .2492)" x="378.91" y="579.26"/><text x="1310.91" y="151.36"><tspan x="1310.91" y="151.36"/></text><text transform="scale(4.0128 .2492)" x="523.76" y="258.22"/><text x="239.33" y="-29.9"><tspan x="239.33" y="-29.9"/></text><text transform="scale(4.0128 .2492)" x="256.72" y="-469.13"/><text x="1337.38" y="-246.37"><tspan x="1337.38" y="-246.37"/></text><text transform="scale(4.0128 .2492)" x="530.36" y="-1337.8"/><text x="1918.65" y="-326.37"><tspan x="1918.65" y="-326.37"/></text><text transform="scale(4.0128 .2492)" x="675.21" y="-1658.83"/><text x="1529.53" y="-798.77"><tspan x="1529.53" y="-798.77"/></text><text transform="scale(4.0128 .2492)" x="578.24" y="-3554.48"/><text x="2110.79" y="-878.78"><tspan x="2110.79" y="-878.78"/></text><text transform="scale(4.0128 .2492)" x="723.09" y="-3875.52"/><text x="277.99" y="535.94"><tspan x="277.99" y="535.94"/></text><text x="729.64" y="231.36"><tspan x="729.64" y="231.36"/></text><text transform="scale(4.0128 .2492)" x="378.91" y="579.26"/><text x="1310.91" y="151.36"><tspan x="1310.91" y="151.36"/></text><text transform="scale(4.0128 .2492)" x="523.76" y="258.22"/><text x="239.33" y="-29.9"><tspan x="239.33" y="-29.9"/></text><text transform="scale(4.0128 .2492)" x="256.72" y="-469.13"/><text x="1337.38" y="-246.37"><tspan x="1337.38" y="-246.37"/></text><text transform="scale(4.0128 .2492)" x="530.36" y="-1337.8"/><text x="1918.65" y="-326.37"><tspan x="1918.65" y="-326.37"/></text><text transform="scale(4.0128 .2492)" x="675.21" y="-1658.83"/><text x="1529.53" y="-798.77"><tspan x="1529.53" y="-798.77"/></text><text transform="scale(4.0128 .2492)" x="578.24" y="-3554.48"/><text x="2110.79" y="-878.78"><tspan x="2110.79" y="-878.78"/></text><text transform="scale(4.0128 .2492)" x="723.09" y="-3875.52"/><text x="277.99" y="535.94"><tspan x="277.99" y="535.94"/></text><text x="729.64" y="231.36"><tspan x="729.64" y="231.36"/></text><text transform="scale(4.0128 .2492)" x="378.91" y="579.26"/><text x="1310.91" y="151.36"><tspan x="1310.91" y="151.36"/></text><text transform="scale(4.0128 .2492)" x="523.76" y="258.22"/><text x="239.33" y="-29.9"><tspan x="239.33" y="-29.9"/></text><text transform="scale(4.0128 .2492)" x="256.72" y="-469.13"/><text x="1337.38" y="-246.37"><tspan x="1337.38" y="-246.37"/></text><text transform="scale(4.0128 .2492)" x="530.36" y="-1337.8"/><text x="1918.65" y="-326.37"><tspan x="1918.65" y="-326.37"/></text><text transform="scale(4.0128 .2492)" x="675.21" y="-1658.83"/><text x="1529.53" y="-798.77"><tspan x="1529.53" y="-798.77"/></text><text transform="scale(4.0128 .2492)" x="578.24" y="-3554.48"/><text x="2110.79" y="-878.78"><tspan x="2110.79" y="-878.78"/></text><text transform="scale(4.0128 .2492)" x="723.09" y="-3875.52"/><text x="277.99" y="535.94"><tspan x="277.99" y="535.94"/></text><text x="729.64" y="231.36"><tspan x="729.64" y="231.36"/></text><text transform="scale(4.0128 .2492)" x="378.91" y="579.26"/><text x="1310.91" y="151.36"><tspan x="1310.91" y="151.36"/></text><text transform="scale(4.0128 .2492)" x="523.76" y="258.22"/><text x="239.33" y="-29.9"><tspan x="239.33" y="-29.9"/></text><text transform="scale(4.0128 .2492)" x="256.72" y="-469.13"/><text x="1337.38" y="-246.37"><tspan x="1337.38" y="-246.37"/></text><text transform="scale(4.0128 .2492)" x="530.36" y="-1337.8"/><text x="1918.65" y="-326.37"><tspan x="1918.65" y="-326.37"/></text><text transform="scale(4.0128 .2492)" x="675.21" y="-1658.83"/><text x="1529.53" y="-798.77"><tspan x="1529.53" y="-798.77"/></text><text transform="scale(4.0128 .2492)" x="578.24" y="-3554.48"/><text x="2110.79" y="-878.78"><tspan x="2110.79" y="-878.78"/></text><text transform="scale(4.0128 .2492)" x="723.09" y="-3875.52"/><text x="277.99" y="535.94"><tspan x="277.99" y="535.94"/></text><text x="729.64" y="231.36"><tspan x="729.64" y="231.36"/></text><text transform="scale(4.0128 .2492)" x="378.91" y="579.26"/><text x="1310.91" y="151.36"><tspan x="1310.91" y="151.36"/></text><text transform="scale(4.0128 .2492)" x="523.76" y="258.22"/><text x="239.33" y="-29.9"><tspan x="239.33" y="-29.9"/></text><text transform="scale(4.0128 .2492)" x="256.72" y="-469.13"/><text x="1337.38" y="-246.37"><tspan x="1337.38" y="-246.37"/></text><text transform="scale(4.0128 .2492)" x="530.36" y="-1337.8"/><text x="1918.65" y="-326.37"><tspan x="1918.65" y="-326.37"/></text><text transform="scale(4.0128 .2492)" x="675.21" y="-1658.83"/><text x="1529.53" y="-798.77"><tspan x="1529.53" y="-798.77"/></text><text transform="scale(4.0128 .2492)" x="578.24" y="-3554.48"/><text x="2110.79" y="-878.78"><tspan x="2110.79" y="-878.78"/></text><text transform="scale(4.0128 .2492)" x="723.09" y="-3875.52"/><text x="277.99" y="535.94"><tspan x="277.99" y="535.94"/></text><text x="729.64" y="231.36"><tspan x="729.64" y="231.36"/></text><text transform="scale(4.0128 .2492)" x="378.91" y="579.26"/><text x="1310.91" y="151.36"><tspan x="1310.91" y="151.36"/></text><text transform="scale(4.0128 .2492)" x="523.76" y="258.22"/><text x="239.33" y="-29.9"><tspan x="239.33" y="-29.9"/></text><text transform="scale(4.0128 .2492)" x="256.72" y="-469.13"/><text x="1337.38" y="-246.37"><tspan x="1337.38" y="-246.37"/></text><text transform="scale(4.0128 .2492)" x="530.36" y="-1337.8"/><text x="1918.65" y="-326.37"><tspan x="1918.65" y="-326.37"/></text><text transform="scale(4.0128 .2492)" x="675.21" y="-1658.83"/><text x="1529.53" y="-798.77"><tspan x="1529.53" y="-798.77"/></text><text transform="scale(4.0128 .2492)" x="578.24" y="-3554.48"/><text x="2110.79" y="-878.78"><tspan x="2110.79" y="-878.78"/></text><text transform="scale(4.0128 .2492)" x="723.09" y="-3875.52"/><text x="277.99" y="535.94"><tspan x="277.99" y="535.94"/></text><g fill-rule="evenodd"><path d="m471.95 253.05c0 120.9-98.01 218.91-218.91 218.91s-218.91-98.01-218.91-218.91 98.01-218.91 218.91-218.91 218.91 98.01 218.91 218.91" fill="#6cb943"/><path d="m256 1c-140.83 0-255 114.17-255 255s114.17 255 255 255 255-114.17 255-255-114.17-255-255-255m8.827 44.931c120.9 0 218.9 98 218.9 218.9s-98 218.9-218.9 218.9-218.93-98-218.93-218.9 98.03-218.9 218.93-218.9" fill-opacity=".067"/><g fill-opacity=".129"><path d="m256 4.43c-138.94 0-251.57 112.63-251.57 251.57s112.63 251.57 251.57 251.57 251.57-112.63 251.57-251.57-112.63-251.57-251.57-251.57m5.885 38.556c120.9 0 218.9 98 218.9 218.9s-98 218.9-218.9 218.9-218.93-98-218.93-218.9 98.03-218.9 218.93-218.9"/><path d="m256 8.36c-136.77 0-247.64 110.87-247.64 247.64s110.87 247.64 247.64 247.64 247.64-110.87 247.64-247.64-110.87-247.64-247.64-247.64m2.942 31.691c120.9 0 218.9 98 218.9 218.9s-98 218.9-218.9 218.9-218.93-98-218.93-218.9 98.03-218.9 218.93-218.9"/></g><path d="m253.04 7.86c-135.42 0-245.19 109.78-245.19 245.19 0 135.42 109.78 245.19 245.19 245.19 135.42 0 245.19-109.78 245.19-245.19 0-135.42-109.78-245.19-245.19-245.19m0 26.297c120.9 0 218.9 98 218.9 218.9s-98 218.9-218.9 218.9-218.93-98-218.93-218.9 98.03-218.9 218.93-218.9z" fill="#fff" stroke="#000" stroke-opacity=".31" stroke-width="4.904"/></g><text x="729.64" y="231.36"><tspan x="729.64" y="231.36"/></text><text transform="scale(4.0128 .2492)" x="378.91" y="579.26"/><text x="1310.91" y="151.36"><tspan x="1310.91" y="151.36"/></text><text transform="scale(4.0128 .2492)" x="523.76" y="258.22"/><text x="239.33" y="-29.9"><tspan x="239.33" y="-29.9"/></text><text transform="scale(4.0128 .2492)" x="256.72" y="-469.13"/><text x="1337.38" y="-246.37"><tspan x="1337.38" y="-246.37"/></text><text transform="scale(4.0128 .2492)" x="530.36" y="-1337.8"/><text x="1918.65" y="-326.37"><tspan x="1918.65" y="-326.37"/></text><text transform="scale(4.0128 .2492)" x="675.21" y="-1658.83"/><text x="1529.53" y="-798.77"><tspan x="1529.53" y="-798.77"/></text><text transform="scale(4.0128 .2492)" x="578.24" y="-3554.48"/><text x="2110.79" y="-878.78"><tspan x="2110.79" y="-878.78"/></text><text transform="scale(4.0128 .2492)" x="723.09" y="-3875.52"/><text x="277.99" y="535.94"><tspan x="277.99" y="535.94"/></text><path d="m387.99 131.26-95.74 1.303c-92.81 1.263-96.13 1.61-108.51 11.334-20.884 16.396-23.09 23.511-23.346 86.84l-21.662-21.662h-42.976v56.666c0 52.27.725 57.44 9.344 66.61.375.399.746.784 1.115 1.152l138.27 138.27c2.843.109 5.695.184 8.564.184 120.9 0 218.91-98.01 218.91-218.91 0-14.311-1.388-28.3-4.01-41.842l-79.947-79.947" opacity=".25"/><path d="m196.74 376.93c-9.937-4.054-32.23-25.438-32.23-30.916 0-2.041-11.266-3.712-25.04-3.712-20.614 0-26.687-1.757-34.381-9.947-8.619-9.174-9.344-14.347-9.344-66.61v-56.666h42.976v90.24h21.488l.152-63.39c.164-68.32 1.908-75.19 23.368-92.04 12.386-9.724 15.7-10.07 108.51-11.334l95.74-1.303v73.516h-77.358v-51.572h-77.358v107.44h-38.776l37.07 48.35c20.389 26.591 38.59 48.35 40.448 48.35 3.801 0 72.809-88.46 72.922-93.47.04-1.773-7.663-3.223-17.12-3.223-17.19 0-17.19 0-17.19-17.19v-17.19h78l-1.399 59.834c-1.332 56.951-1.917 60.39-12.143 71.32-20.246 21.643-28.728 23.583-101.85 23.289-37.35-.15-71.77-1.85-76.5-3.779" fill="#fff"/></svg>